Coordinates
version=1
nRows=18
nColumns=19
inDegrees=yes

Units are S.I. units (second, meters, Newtons, ...)
If the header above contains a line with 'inDegrees', this indicates whether rotational values are in degrees (yes) or radians (no).

endheader
time	pelvis_tilt	pelvis_list	pelvis_rotation	pelvis_tx	pelvis_ty	pelvis_tz	hip_flexion_r	hip_adduction_r	hip_rotation_r	knee_angle_r	knee_angle_r_beta	ankle_angle_r	hip_flexion_l	hip_adduction_l	hip_rotation_l	knee_angle_l	knee_angle_l_beta	ankle_angle_l
     14.86666667	     -7.96073241	     -2.68225107	      0.85106463	      2.28227100	      1.00610238	      1.05744464	     32.36012979	      4.53818561	     -8.91505638	     18.59322213	      0.32451294	      3.58979217	     -9.75264802	     -6.65677518	     -5.79185556	     67.92461414	      1.18550816	     -5.82731687
     14.87333333	     -7.82327998	     -2.46091255	      0.47666450	      2.27993351	      1.00106421	      1.05711211	     33.07129184	      4.23099084	     -8.90480843	     22.13834321	      0.38638698	      3.68082539	     -8.34795358	     -5.92467645	     -4.64168573	     72.43459263	      1.26422213	     -5.76630188
     14.88000000	     -7.66748478	     -2.25751485	      0.05954832	      2.27751138	      0.99570714	      1.05661397	     33.74410025	      3.93230352	     -8.79067846	     25.83694024	      0.45093968	      4.05688396	     -6.92336477	     -5.21526482	     -3.75179259	     76.84474356	      1.34119379	     -5.63021027
     14.88666667	     -7.56515129	     -2.12254530	     -0.40626749	      2.27506160	      0.99004161	      1.05608100	     34.39924849	      3.73196278	     -8.52645821	     29.53283606	      0.51544523	      4.80000181	     -5.40448805	     -4.61697869	     -3.11245249	     81.14570927	      1.41625980	     -5.36857596
     14.89333333	     -7.47021708	     -2.03127656	     -0.89966095	      2.27259539	      0.98431995	      1.05559284	     34.94335070	      3.61394246	     -8.15329173	     33.10946145	      0.57786912	      5.91017217	     -3.82827252	     -4.14809989	     -2.69543559	     85.29627921	      1.48870091	     -5.03163023
     14.90000000	     -7.40153850	     -2.05169398	     -1.37755086	      2.27013720	      0.97867692	      1.05515860	     35.34348435	      3.64480184	     -7.70194357	     36.44324860	      0.63605468	      7.39601268	     -2.16320795	     -3.88097965	     -2.40227871	     89.28891042	      1.55838547	     -4.54446858
     14.90666667	     -7.52359394	     -2.19223520	     -1.82281358	      2.26772297	      0.97309872	      1.05485407	     35.72379565	      3.84013012	     -7.23113530	     39.41516317	      0.68792437	      9.15691741	     -0.21453804	     -3.87217706	     -2.19564437	     93.13425492	      1.62549939	     -3.95539434
     14.91333333	     -7.64884000	     -2.41945521	     -2.20284669	      2.26532086	      0.96795920	      1.05462074	     35.89377952	      4.12577022	     -6.81776714	     42.05262060	      0.73395669	     11.09941075	      1.82773464	     -4.05296214	     -1.98844738	     96.76890509	      1.68893601	     -3.37208733
     14.92000000	     -7.25552274	     -2.90702091	     -2.53231359	      2.26322516	      0.96411910	      1.05451239	     35.16208286	      4.67230502	     -6.51954246	     44.13172982	      0.77024399	     13.30073573	      3.31383551	     -4.60696033	     -1.80638908	    100.06590027	      1.74647943	     -2.66095432
     14.92666667	     -8.06151063	     -3.11413253	     -2.67151322	      2.26073572	      0.95937050	      1.05437261	     35.61837477	      4.90110309	     -6.26960054	     46.01088209	      0.80304138	     15.27725045	      6.40890998	     -4.92005905	     -1.34384054	    103.33689761	      1.80356910	     -2.11414597
     14.93333333	     -8.29202391	     -3.53294121	     -2.71190122	      2.25855818	      0.95615307	      1.05425494	     35.10808285	      5.30381715	     -6.17870272	     47.30857891	      0.82569047	     17.30459002	      8.91940557	     -5.49610842	     -0.81559780	    106.20839527	      1.85368619	     -1.53731401
     14.94000000	     -8.01083213	     -3.91185757	     -2.78254374	      2.25670235	      0.95431598	      1.05430048	     33.79149180	      5.71831214	     -5.99020146	     48.18482886	      0.84098391	     19.33363397	     10.87174796	     -6.07780161	     -0.42559331	    108.61635457	      1.89571301	     -0.94749817
     14.94666667	     -8.76772357	     -4.25712113	     -2.51377385	      2.25458515	      0.95185476	      1.05402470	     33.40904926	      5.92348234	     -6.20226140	     48.70242912	      0.85001774	     20.94585950	     14.28190805	     -6.52945178	      0.46945786	    110.93541901	      1.93618832	     -0.48688328
     14.95333333	     -8.69227014	     -4.59154178	     -2.26505558	      2.25294077	      0.95119904	      1.05385282	     31.86009753	      6.16983984	     -6.31142186	     48.75637472	      0.85095927	     22.46641081	     16.72475375	     -6.96502808	      1.17692269	    112.69616374	      1.96691911	      0.00562004
     14.96000000	     -8.79652595	     -4.79802064	     -1.93838674	      2.25141191	      0.95095166	      1.05366025	     30.33507182	      6.27780996	     -6.45731895	     48.50348643	      0.84654554	     23.72405251	     19.44549150	     -7.21508341	      1.88672901	    114.09676708	      1.99136425	      0.43196601
     14.96666667	     -8.74763908	     -4.76674488	     -1.75202327	      2.25016321	      0.95148910	      1.05364490	     28.50072600	      6.27041840	     -6.32133405	     47.99648701	      0.83769673	     24.90367591	     21.90640315	     -7.23300564	      2.24117514	    115.00576230	      2.00722921	      0.90601740
     14.97333333	     -8.73937859	     -4.58734973	     -1.57334021	      2.24903151	      0.95264092	      1.05367771	     26.56747751	      6.15334518	     -6.07898530	     47.20461646	      0.82387598	     25.61950619	     24.38062259	     -7.03763073	      2.45712656	    115.49449666	      2.01575923	      1.36727172
     14.98000000	     -8.92720275	     -4.65115660	     -1.01657835	      2.24797019	      0.95386339	      1.05338530	     24.68604490	      6.08927155	     -6.44334630	     46.08488458	      0.80433297	     26.09448233	     27.18518291	     -6.96559271	      3.04581197	    115.77306085	      2.02062110	      1.82913163
